<svg xmlns="http://www.w3.org/2000/svg" xmlns:xlink="http://www.w3.org/1999/xlink" width="200" zoomAndPan="magnify" viewBox="0 0 150 37.5" height="50" preserveAspectRatio="xMidYMid meet" version="1.0"><defs><g><g id="id1"/></g><clipPath id="id2"><path d="M 0.988281 0 L 149.011719 0 L 149.011719 37.007812 L 0.988281 37.007812 Z M 0.988281 0 " clip-rule="nonzero"/></clipPath><clipPath id="id3"><path d="M 0.988281 9 L 19 9 L 19 27 L 0.988281 27 Z M 0.988281 9 " clip-rule="nonzero"/></clipPath></defs><g clip-path="url(#id2)"><path fill="rgb(100%, 100%, 100%)" d="M 0.988281 0 L 149.011719 0 L 149.011719 44.40625 L 0.988281 44.40625 Z M 0.988281 0 " fill-opacity="1" fill-rule="nonzero"/><path fill="rgb(100%, 100%, 100%)" d="M 0.988281 0 L 149.011719 0 L 149.011719 37.007812 L 0.988281 37.007812 Z M 0.988281 0 " fill-opacity="1" fill-rule="nonzero"/><path fill="rgb(100%, 100%, 100%)" d="M 0.988281 0 L 149.011719 0 L 149.011719 37.007812 L 0.988281 37.007812 Z M 0.988281 0 " fill-opacity="1" fill-rule="nonzero"/><path fill="rgb(100%, 100%, 100%)" d="M 0.988281 0 L 149.011719 0 L 149.011719 37.007812 L 0.988281 37.007812 Z M 0.988281 0 " fill-opacity="1" fill-rule="nonzero"/></g><g fill="rgb(0%, 0%, 0%)" fill-opacity="1"><g transform="translate(28.937198, 24.002561)"><g><path d="M 8.90625 0.03125 C 7.914062 0.03125 7.378906 -0.128906 7.296875 -0.453125 L 6.734375 -2.65625 L 4.015625 -2.65625 L 3.515625 -0.53125 C 3.441406 -0.175781 2.894531 0 1.875 0 C 1.320312 0 0.910156 -0.03125 0.640625 -0.09375 C 0.378906 -0.15625 0.25 -0.203125 0.25 -0.234375 L 3.296875 -11.84375 C 3.296875 -11.9375 4.078125 -11.984375 5.640625 -11.984375 C 7.203125 -11.984375 7.984375 -11.9375 7.984375 -11.84375 L 10.953125 -0.21875 C 10.953125 -0.144531 10.6875 -0.0820312 10.15625 -0.03125 C 9.632812 0.0078125 9.21875 0.03125 8.90625 0.03125 Z M 4.4375 -4.828125 L 6.234375 -4.828125 L 5.46875 -8.375 L 5.359375 -8.375 Z M 4.4375 -4.828125 "/></g></g></g><g fill="rgb(0%, 0%, 0%)" fill-opacity="1"><g transform="translate(40.155995, 24.002561)"><g><path d="M 1.125 -3.078125 C 2.050781 -2.523438 2.785156 -2.25 3.328125 -2.25 C 3.671875 -2.25 3.84375 -2.367188 3.84375 -2.609375 C 3.84375 -2.773438 3.546875 -3 2.953125 -3.28125 C 1.523438 -3.851562 0.8125 -4.804688 0.8125 -6.140625 C 0.8125 -6.984375 1.117188 -7.625 1.734375 -8.0625 C 2.347656 -8.507812 3.085938 -8.734375 3.953125 -8.734375 C 4.816406 -8.734375 5.546875 -8.640625 6.140625 -8.453125 C 6.742188 -8.273438 7.046875 -8.039062 7.046875 -7.75 C 7.046875 -7.5 6.921875 -7.164062 6.671875 -6.75 C 6.429688 -6.34375 6.265625 -6.117188 6.171875 -6.078125 C 5.679688 -6.359375 5.148438 -6.5 4.578125 -6.5 C 4.265625 -6.5 4.109375 -6.390625 4.109375 -6.171875 C 4.109375 -6.035156 4.164062 -5.914062 4.28125 -5.8125 C 4.40625 -5.71875 4.628906 -5.597656 4.953125 -5.453125 C 5.273438 -5.316406 5.539062 -5.191406 5.75 -5.078125 C 5.957031 -4.960938 6.195312 -4.800781 6.46875 -4.59375 C 7.007812 -4.15625 7.28125 -3.585938 7.28125 -2.890625 C 7.28125 -1.984375 6.976562 -1.242188 6.375 -0.671875 C 5.769531 -0.109375 4.859375 0.171875 3.640625 0.171875 C 2.828125 0.171875 2.085938 0.0351562 1.421875 -0.234375 C 0.753906 -0.515625 0.421875 -0.894531 0.421875 -1.375 C 0.421875 -1.6875 0.5 -2.019531 0.65625 -2.375 C 0.8125 -2.726562 0.96875 -2.960938 1.125 -3.078125 Z M 1.125 -3.078125 "/></g></g></g><g fill="rgb(0%, 0%, 0%)" fill-opacity="1"><g transform="translate(47.863555, 24.002561)"><g><path d="M 3.640625 -0.125 C 3.640625 -0.0195312 3.160156 0.03125 2.203125 0.03125 C 1.242188 0.03125 0.765625 -0.046875 0.765625 -0.203125 L 0.765625 -11.953125 C 0.765625 -12.023438 0.941406 -12.078125 1.296875 -12.109375 C 1.648438 -12.148438 1.945312 -12.171875 2.1875 -12.171875 C 3.15625 -12.171875 3.640625 -12.066406 3.640625 -11.859375 L 3.640625 -8.4375 C 4.273438 -8.625 4.757812 -8.71875 5.09375 -8.71875 C 5.957031 -8.71875 6.640625 -8.488281 7.140625 -8.03125 C 7.648438 -7.570312 7.90625 -6.710938 7.90625 -5.453125 L 7.90625 -0.140625 C 7.90625 -0.0351562 7.457031 0.015625 6.5625 0.015625 C 5.5625 -0.015625 5.0625 -0.0703125 5.0625 -0.15625 L 5.0625 -5.1875 C 5.0625 -5.75 4.878906 -6.03125 4.515625 -6.03125 C 4.253906 -6.03125 3.960938 -5.910156 3.640625 -5.671875 Z M 3.640625 -0.125 "/></g></g></g><g fill="rgb(0%, 0%, 0%)" fill-opacity="1"><g transform="translate(56.444642, 24.002561)"><g><path d="M 0.765625 -11.859375 C 0.765625 -12.046875 1.285156 -12.140625 2.328125 -12.140625 C 3.296875 -12.097656 3.78125 -12.019531 3.78125 -11.90625 L 3.78125 -5.328125 L 5.484375 -8.46875 C 5.566406 -8.632812 6.050781 -8.71875 6.9375 -8.71875 C 7.832031 -8.71875 8.40625 -8.660156 8.65625 -8.546875 L 6.421875 -4.921875 L 9 -0.109375 C 9.019531 -0.0546875 8.800781 -0.0195312 8.34375 0 C 7.894531 0.03125 7.523438 0.046875 7.234375 0.046875 C 6.140625 0.046875 5.550781 -0.00390625 5.46875 -0.109375 L 3.765625 -3.90625 L 3.765625 -0.125 C 3.765625 0.03125 3.265625 0.109375 2.265625 0.109375 C 1.265625 0.109375 0.765625 0.0351562 0.765625 -0.109375 Z M 0.765625 -11.859375 "/></g></g></g><g fill="rgb(0%, 0%, 0%)" fill-opacity="1"><g transform="translate(65.539565, 24.002561)"><g><path d="M 1.84375 -6.21875 C 1.53125 -6.789062 1.375 -7.253906 1.375 -7.609375 C 1.375 -7.972656 1.46875 -8.207031 1.65625 -8.3125 C 2.3125 -8.59375 3.207031 -8.734375 4.34375 -8.734375 C 5.476562 -8.734375 6.28125 -8.46875 6.75 -7.9375 C 7.21875 -7.40625 7.453125 -6.625 7.453125 -5.59375 L 7.453125 -2.875 L 8.03125 -2.875 C 8.226562 -2.875 8.378906 -2.757812 8.484375 -2.53125 C 8.597656 -2.300781 8.65625 -1.988281 8.65625 -1.59375 C 8.65625 -1.195312 8.554688 -0.800781 8.359375 -0.40625 C 8.160156 -0.0195312 7.890625 0.171875 7.546875 0.171875 C 6.921875 0.171875 6.421875 0.00390625 6.046875 -0.328125 C 5.878906 -0.460938 5.75 -0.628906 5.65625 -0.828125 C 5.132812 -0.160156 4.316406 0.171875 3.203125 0.171875 C 2.367188 0.171875 1.664062 -0.125 1.09375 -0.71875 C 0.519531 -1.3125 0.234375 -2.015625 0.234375 -2.828125 C 0.234375 -4.691406 1.347656 -5.625 3.578125 -5.625 L 4.53125 -5.625 L 4.53125 -5.796875 C 4.53125 -6.085938 4.476562 -6.273438 4.375 -6.359375 C 4.28125 -6.453125 4.054688 -6.5 3.703125 -6.5 C 3.265625 -6.5 2.644531 -6.40625 1.84375 -6.21875 Z M 3.21875 -3.0625 C 3.21875 -2.8125 3.285156 -2.617188 3.421875 -2.484375 C 3.566406 -2.359375 3.742188 -2.296875 3.953125 -2.296875 C 4.160156 -2.296875 4.351562 -2.378906 4.53125 -2.546875 L 4.53125 -3.875 L 4.046875 -3.875 C 3.492188 -3.875 3.21875 -3.601562 3.21875 -3.0625 Z M 3.21875 -3.0625 "/></g></g></g><g fill="rgb(0%, 0%, 0%)" fill-opacity="1"><g transform="translate(74.394709, 24.002561)"><g><path d="M 4.359375 -0.109375 C 4.359375 -0.0234375 3.945312 0.015625 3.125 0.015625 C 1.976562 -0.015625 1.40625 -0.078125 1.40625 -0.171875 L 1.40625 -5.71875 L 0.953125 -5.71875 C 0.660156 -5.71875 0.46875 -5.972656 0.375 -6.484375 C 0.351562 -6.628906 0.34375 -6.773438 0.34375 -6.921875 C 0.34375 -7.273438 0.410156 -7.628906 0.546875 -7.984375 C 0.753906 -8.484375 1.070312 -8.734375 1.5 -8.734375 C 1.9375 -8.734375 2.328125 -8.628906 2.671875 -8.421875 C 3.015625 -8.222656 3.242188 -8.019531 3.359375 -7.8125 C 4.078125 -8.425781 4.929688 -8.734375 5.921875 -8.734375 C 6.921875 -8.734375 7.644531 -8.460938 8.09375 -7.921875 C 8.539062 -7.390625 8.765625 -6.515625 8.765625 -5.296875 L 8.765625 -0.15625 C 8.765625 -0.0195312 8.273438 0.046875 7.296875 0.046875 C 6.316406 0.046875 5.828125 -0.0195312 5.828125 -0.15625 L 5.828125 -5.109375 C 5.828125 -5.679688 5.628906 -5.96875 5.234375 -5.96875 C 5.117188 -5.96875 4.957031 -5.914062 4.75 -5.8125 C 4.539062 -5.71875 4.410156 -5.648438 4.359375 -5.609375 Z M 4.359375 -0.109375 "/></g></g></g><g fill="rgb(0%, 0%, 0%)" fill-opacity="1"><g transform="translate(83.832189, 24.002561)"><g/></g></g><g fill="rgb(0%, 0%, 0%)" fill-opacity="1"><g transform="translate(87.052236, 24.002561)"><g><path d="M 6.421875 -7.234375 C 6.640625 -7.234375 6.75 -6.832031 6.75 -6.03125 C 6.75 -5.789062 6.722656 -5.507812 6.671875 -5.1875 C 6.617188 -4.863281 6.523438 -4.703125 6.390625 -4.703125 L 4.21875 -4.703125 L 4.21875 -2.984375 L 7.375 -2.984375 C 7.5625 -2.984375 7.691406 -2.734375 7.765625 -2.234375 C 7.796875 -2.015625 7.8125 -1.78125 7.8125 -1.53125 C 7.8125 -1.289062 7.773438 -0.972656 7.703125 -0.578125 C 7.640625 -0.191406 7.53125 0 7.375 0 L 1.515625 0 C 1.078125 0 0.859375 -0.175781 0.859375 -0.53125 L 0.859375 -11.546875 C 0.859375 -11.847656 0.988281 -12 1.25 -12 L 7.390625 -12 C 7.628906 -12 7.75 -11.492188 7.75 -10.484375 C 7.75 -9.472656 7.628906 -8.96875 7.390625 -8.96875 L 4.21875 -8.96875 L 4.21875 -7.234375 Z M 6.421875 -7.234375 "/></g></g></g><g fill="rgb(0%, 0%, 0%)" fill-opacity="1"><g transform="translate(95.496308, 24.002561)"><g><path d="M 0.859375 -11.953125 C 0.859375 -12.085938 1.351562 -12.15625 2.34375 -12.15625 C 3.332031 -12.15625 3.828125 -12.082031 3.828125 -11.9375 L 3.828125 -8.609375 C 4.316406 -8.691406 4.664062 -8.734375 4.875 -8.734375 C 7.269531 -8.734375 8.46875 -7.359375 8.46875 -4.609375 C 8.46875 -3.078125 8.097656 -1.894531 7.359375 -1.0625 C 6.617188 -0.238281 5.570312 0.171875 4.21875 0.171875 C 2.863281 0.171875 1.742188 -0.128906 0.859375 -0.734375 Z M 4.390625 -6.0625 C 4.191406 -6.0625 4.003906 -6 3.828125 -5.875 L 3.828125 -2.609375 C 3.984375 -2.535156 4.148438 -2.5 4.328125 -2.5 C 4.503906 -2.5 4.6875 -2.566406 4.875 -2.703125 C 5.1875 -2.929688 5.34375 -3.460938 5.34375 -4.296875 C 5.34375 -5.472656 5.023438 -6.0625 4.390625 -6.0625 Z M 4.390625 -6.0625 "/></g></g></g><g fill="rgb(0%, 0%, 0%)" fill-opacity="1"><g transform="translate(104.402834, 24.002561)"><g><path d="M 4.71875 -0.109375 C 4.71875 0.0351562 4.238281 0.109375 3.28125 0.109375 C 2.132812 0.0546875 1.5625 -0.0195312 1.5625 -0.125 L 1.5625 -6.1875 L 0.6875 -6.1875 C 0.457031 -6.1875 0.34375 -6.582031 0.34375 -7.375 C 0.34375 -7.570312 0.363281 -7.820312 0.40625 -8.125 C 0.445312 -8.425781 0.53125 -8.578125 0.65625 -8.578125 L 1.5625 -8.578125 L 1.5625 -10.078125 C 1.5625 -10.304688 2.039062 -10.421875 3 -10.421875 C 3.96875 -10.421875 4.453125 -10.328125 4.453125 -10.140625 L 4.453125 -9.046875 L 4.46875 -8.578125 L 5.9375 -8.578125 C 6.125 -8.578125 6.21875 -8.175781 6.21875 -7.375 C 6.21875 -6.570312 6.125 -6.171875 5.9375 -6.171875 L 4.71875 -6.171875 Z M 4.71875 -0.109375 "/></g></g></g><g fill="rgb(0%, 0%, 0%)" fill-opacity="1"><g transform="translate(110.705914, 24.002561)"><g><path d="M 7.25 -0.46875 C 6.53125 -0.0390625 5.601562 0.171875 4.46875 0.171875 C 3.34375 0.171875 2.390625 -0.210938 1.609375 -0.984375 C 0.835938 -1.753906 0.453125 -2.820312 0.453125 -4.1875 C 0.453125 -5.550781 0.820312 -6.648438 1.5625 -7.484375 C 2.3125 -8.316406 3.257812 -8.734375 4.40625 -8.734375 C 5.550781 -8.734375 6.429688 -8.441406 7.046875 -7.859375 C 7.671875 -7.285156 7.984375 -6.578125 7.984375 -5.734375 C 7.984375 -3.890625 6.921875 -2.96875 4.796875 -2.96875 L 3.609375 -2.96875 C 3.609375 -2.625 3.703125 -2.382812 3.890625 -2.25 C 4.085938 -2.125 4.367188 -2.0625 4.734375 -2.0625 C 5.535156 -2.0625 6.296875 -2.242188 7.015625 -2.609375 C 7.023438 -2.617188 7.078125 -2.535156 7.171875 -2.359375 C 7.441406 -1.867188 7.578125 -1.453125 7.578125 -1.109375 C 7.578125 -0.773438 7.46875 -0.5625 7.25 -0.46875 Z M 5.109375 -5.421875 C 5.109375 -5.898438 4.875 -6.140625 4.40625 -6.140625 C 4.1875 -6.140625 4 -6.070312 3.84375 -5.9375 C 3.6875 -5.800781 3.609375 -5.609375 3.609375 -5.359375 L 3.609375 -4.828125 L 4.546875 -4.828125 C 4.921875 -4.828125 5.109375 -5.023438 5.109375 -5.421875 Z M 5.109375 -5.421875 "/></g></g></g><g fill="rgb(0%, 0%, 0%)" fill-opacity="1"><g transform="translate(119.030089, 24.002561)"><g><path d="M 0.765625 -11.859375 C 0.765625 -12.046875 1.285156 -12.140625 2.328125 -12.140625 C 3.296875 -12.097656 3.78125 -12.019531 3.78125 -11.90625 L 3.78125 -5.328125 L 5.484375 -8.46875 C 5.566406 -8.632812 6.050781 -8.71875 6.9375 -8.71875 C 7.832031 -8.71875 8.40625 -8.660156 8.65625 -8.546875 L 6.421875 -4.921875 L 9 -0.109375 C 9.019531 -0.0546875 8.800781 -0.0195312 8.34375 0 C 7.894531 0.03125 7.523438 0.046875 7.234375 0.046875 C 6.140625 0.046875 5.550781 -0.00390625 5.46875 -0.109375 L 3.765625 -3.90625 L 3.765625 -0.125 C 3.765625 0.03125 3.265625 0.109375 2.265625 0.109375 C 1.265625 0.109375 0.765625 0.0351562 0.765625 -0.109375 Z M 0.765625 -11.859375 "/></g></g></g><g fill="rgb(0%, 0%, 0%)" fill-opacity="1"><g transform="translate(128.125012, 24.002561)"><g><path d="M 1.84375 -6.21875 C 1.53125 -6.789062 1.375 -7.253906 1.375 -7.609375 C 1.375 -7.972656 1.46875 -8.207031 1.65625 -8.3125 C 2.3125 -8.59375 3.207031 -8.734375 4.34375 -8.734375 C 5.476562 -8.734375 6.28125 -8.46875 6.75 -7.9375 C 7.21875 -7.40625 7.453125 -6.625 7.453125 -5.59375 L 7.453125 -2.875 L 8.03125 -2.875 C 8.226562 -2.875 8.378906 -2.757812 8.484375 -2.53125 C 8.597656 -2.300781 8.65625 -1.988281 8.65625 -1.59375 C 8.65625 -1.195312 8.554688 -0.800781 8.359375 -0.40625 C 8.160156 -0.0195312 7.890625 0.171875 7.546875 0.171875 C 6.921875 0.171875 6.421875 0.00390625 6.046875 -0.328125 C 5.878906 -0.460938 5.75 -0.628906 5.65625 -0.828125 C 5.132812 -0.160156 4.316406 0.171875 3.203125 0.171875 C 2.367188 0.171875 1.664062 -0.125 1.09375 -0.71875 C 0.519531 -1.3125 0.234375 -2.015625 0.234375 -2.828125 C 0.234375 -4.691406 1.347656 -5.625 3.578125 -5.625 L 4.53125 -5.625 L 4.53125 -5.796875 C 4.53125 -6.085938 4.476562 -6.273438 4.375 -6.359375 C 4.28125 -6.453125 4.054688 -6.5 3.703125 -6.5 C 3.265625 -6.5 2.644531 -6.40625 1.84375 -6.21875 Z M 3.21875 -3.0625 C 3.21875 -2.8125 3.285156 -2.617188 3.421875 -2.484375 C 3.566406 -2.359375 3.742188 -2.296875 3.953125 -2.296875 C 4.160156 -2.296875 4.351562 -2.378906 4.53125 -2.546875 L 4.53125 -3.875 L 4.046875 -3.875 C 3.492188 -3.875 3.21875 -3.601562 3.21875 -3.0625 Z M 3.21875 -3.0625 "/></g></g></g><g fill="rgb(0%, 0%, 0%)" fill-opacity="1"><g transform="translate(136.980156, 24.002561)"><g><path d="M 4.53125 -0.015625 C 4.53125 0.0664062 4.007812 0.109375 2.96875 0.109375 C 1.925781 0.078125 1.40625 0.03125 1.40625 -0.03125 L 1.40625 -5.71875 L 0.9375 -5.71875 C 0.757812 -5.71875 0.613281 -5.828125 0.5 -6.046875 C 0.394531 -6.273438 0.34375 -6.554688 0.34375 -6.890625 C 0.34375 -8.117188 0.707031 -8.734375 1.4375 -8.734375 C 1.957031 -8.734375 2.382812 -8.578125 2.71875 -8.265625 C 3.0625 -7.953125 3.234375 -7.597656 3.234375 -7.203125 C 3.472656 -7.671875 3.796875 -8.039062 4.203125 -8.3125 C 4.609375 -8.59375 5.023438 -8.734375 5.453125 -8.734375 C 6.109375 -8.734375 6.507812 -8.566406 6.65625 -8.234375 C 6.6875 -8.140625 6.703125 -8.003906 6.703125 -7.828125 C 6.703125 -7.648438 6.644531 -7.332031 6.53125 -6.875 C 6.425781 -6.414062 6.316406 -6.082031 6.203125 -5.875 C 6.085938 -5.675781 6.019531 -5.578125 6 -5.578125 C 5.976562 -5.578125 5.875 -5.617188 5.6875 -5.703125 C 5.5 -5.785156 5.328125 -5.828125 5.171875 -5.828125 C 4.742188 -5.828125 4.53125 -5.484375 4.53125 -4.796875 Z M 4.53125 -0.015625 "/></g></g></g><g fill="rgb(0%, 0%, 0%)" fill-opacity="1"><g transform="translate(143.762808, 24.002561)"><g><path d="M 3.90625 -0.109375 C 3.90625 -0.015625 3.378906 0.03125 2.328125 0.03125 C 1.285156 0.03125 0.765625 -0.00390625 0.765625 -0.078125 L 0.765625 -8.5 C 0.765625 -8.582031 1.285156 -8.625 2.328125 -8.625 C 3.378906 -8.625 3.90625 -8.585938 3.90625 -8.515625 Z M 3.90625 -9.53125 C 3.90625 -9.445312 3.378906 -9.40625 2.328125 -9.40625 C 1.285156 -9.40625 0.765625 -9.441406 0.765625 -9.515625 L 0.765625 -11.984375 C 0.765625 -12.097656 1.285156 -12.15625 2.328125 -12.15625 C 3.378906 -12.15625 3.90625 -12.117188 3.90625 -12.046875 Z M 3.90625 -9.53125 "/></g></g></g><g clip-path="url(#id3)"><path fill="rgb(0%, 0%, 0%)" d="M 0.988281 9.9375 L 18.011719 9.9375 L 18.011719 26.960938 L 0.988281 26.960938 L 0.988281 9.9375 " fill-opacity="1" fill-rule="nonzero"/></g><path fill="rgb(0%, 29.019165%, 67.83905%)" d="M 15.484375 9.363281 C 10.375 9.363281 6.234375 13.507812 6.234375 18.617188 C 6.234375 23.726562 10.375 27.867188 15.484375 27.867188 C 20.59375 27.867188 24.738281 23.726562 24.738281 18.617188 C 24.738281 13.507812 20.59375 9.363281 15.484375 9.363281 " fill-opacity="1" fill-rule="nonzero"/></svg>